<?xml version="1.0" encoding="UTF-8" standalone="no"?>
<!DOCTYPE svg PUBLIC "-//W3C//DTD SVG 20010904//EN"
"http://www.w3.org/TR/2001/REC-SVG-20010904/DTD/svg10.dtd">
<svg
   id="svg1"
   sodipodi:version="0.32"
   inkscape:version="0.38cvs"
   width="210mm"
   height="297mm"
   sodipodi:docname="dumm.svg"
   xmlns="http://www.w3.org/2000/svg"
   xmlns:inkscape="http://www.inkscape.org/namespaces/inkscape"
   xmlns:sodipodi="http://sodipodi.sourceforge.net/DTD/sodipodi-0.dtd"
   xmlns:xlink="http://www.w3.org/1999/xlink"
   sodipodi:docbase="/home/fs/These/these-0.3/img/survey-ccl">
  <defs
     id="defs3" />
  <sodipodi:namedview
     id="base"
     pagecolor="#ffffff"
     bordercolor="#666666"
     borderopacity="1.0"
     inkscape:pageopacity="0.0"
     inkscape:pageshadow="2"
     inkscape:zoom="1.5758648"
     inkscape:cx="331.31362"
     inkscape:cy="240.66944"
     inkscape:window-width="817"
     inkscape:window-height="802"
     showgrid="true"
     snaptogrid="false"
     inkscape:window-x="34"
     inkscape:window-y="22"
     gridtolerance="2.0000000px" />
  <rect
     style="fill:none;fill-opacity:0.75000000;fill-rule:evenodd;stroke:#000000;stroke-width:2.5054781;"
     id="rect839"
     width="17.716536"
     height="103.68577"
     x="237.00070"
     y="772.21674"
     transform="matrix(1.000000,0.000000,9.336624e-2,0.995632,0.000000,0.000000)" />
  <g
     id="g882"
     transform="matrix(0.546812,0.000000,0.000000,0.546812,178.2807,504.8564)"
     style="">
    <path
       style="fill:#ffffff;fill-rule:evenodd;stroke:#000000;stroke-width:5.0000000;stroke-linecap:round;stroke-linejoin:round;"
       d="M 484.09447,314.26244 C 496.05251,330.27522 516.94472,341.06495 526.97848,351.57978 C 537.42458,361.68226 529.59000,372.33454 524.50440,377.35142"
       id="path860"
       sodipodi:nodetypes="czz"
       transform="translate(68.81118,58.31456)" />
    <path
       style="fill:#ffffff;stroke:#000000;stroke-width:5.0000000;stroke-linecap:round;stroke-linejoin:round;"
       d="M 436.78867,275.10101 C 428.21751,296.95379 411.37244,337.47326 406.07521,355.65935 C 400.46547,373.84544 402.38468,440.31318 409.98776,460.98244 C 397.59084,465.40169 380.91620,475.60079 374.28061,485.07607 C 370.45753,489.55134 361.43647,508.33360 359.66196,518.99906 C 349.60982,507.81129 346.84217,488.30947 335.62499,481.39467 C 324.99647,474.47988 284.09929,482.56635 288.35487,502.82389 C 293.19912,523.08143 345.49421,587.25478 351.78414,588.78929 C 358.07408,590.91247 380.01963,578.39621 384.81672,570.52409 C 389.61381,562.65197 381.69458,548.86765 378.86898,545.09480 L 383.56738,552.68633 C 396.56441,523.83995 433.81362,500.12132 449.46034,502.37018 L 457.72305,485.02094 C 441.05901,521.70565 440.01097,530.99627 492.93604,561.57646 C 484.23415,566.36709 477.08962,574.68782 472.77978,583.07536 L 488.71541,587.84021 C 477.90434,580.57835 446.23621,581.76218 443.37054,583.77757 C 431.90787,592.22752 419.52294,616.62327 432.93858,616.45650 L 489.17216,615.75746 L 550.49122,576.79526 C 556.39531,573.04380 554.26848,570.70438 551.12905,561.35521 C 548.37799,552.00604 525.66933,533.83506 520.00344,525.36075 C 514.33755,516.88644 512.79230,521.85330 517.13370,508.17912 C 521.47510,494.50495 542.98586,476.31768 546.05182,443.31570 C 549.70644,409.72506 520.29777,369.56101 503.74160,349.01909 C 487.77409,328.47717 479.85165,312.64456 478.50263,284.74434"
       id="path856"
       sodipodi:nodetypes="cccccccczccccccccccccccccc"
       transform="translate(68.81118,58.31456)" />
    <path
       style="fill:#ffffff;fill-rule:evenodd;stroke:#000000;stroke-width:5.0000000;stroke-linecap:round;stroke-linejoin:round;"
       d="M 456.19525,330.21017 C 455.88789,341.14602 462.24678,357.71727 454.03611,365.90415 C 445.82544,374.09102 418.94393,383.04571 407.34358,381.39316 C 395.74323,379.74060 400.24873,361.02072 385.67105,358.87525 C 370.68102,356.72978 352.04859,364.20573 359.87505,371.81912 L 375.72603,376.51607 L 365.33702,372.77355 C 360.51236,371.03552 346.59041,372.75261 344.22700,383.87550 C 341.45124,394.99838 347.54092,393.40725 347.03306,399.10090 C 346.52521,404.79456 342.16879,404.57792 342.82924,416.38804 C 343.90205,428.19817 367.02374,429.46206 377.30561,429.52032 C 387.99982,429.57858 385.43024,422.28333 404.44010,416.29384 C 423.44996,410.30435 485.62157,406.33266 496.31295,390.28463 C 507.00432,373.82425 501.05871,345.35624 487.96861,326.19082"
       id="path859"
       sodipodi:nodetypes="czzzcczzzzzzzz"
       transform="translate(68.81118,58.31456)" />
  </g>
  <path
     style="fill:none;fill-opacity:0.75000000;fill-rule:evenodd;stroke:#000000;stroke-width:5.0000000;"
     d="M 380.95378,149.91715 L 588.66640,266.58977"
     id="path861"
     transform="matrix(0.546812,0.000000,0.000000,0.546812,215.9075,536.7435)" />
  <path
     style="fill:none;fill-opacity:0.75000000;fill-rule:evenodd;stroke:#000000;stroke-width:5.0000000;"
     d="M 547.12387,108.37463 L 444.59339,273.66084"
     id="path862"
     sodipodi:nodetypes="cc"
     transform="matrix(0.546812,0.000000,0.000000,0.546812,215.9075,536.7435)" />
  <path
     style="fill:#ffffff;fill-rule:evenodd;stroke:#000000;stroke-width:5.0000000;"
     d="M 407.48031,158.77528 C 440.79412,103.67631 507.78684,117.30604 531.49606,131.10234 C 556.61247,146.30582 595.98234,191.94906 563.85436,248.67571 C 538.36902,292.55756 479.84723,293.04026 441.99827,275.83619 C 405.17423,258.63211 379.85694,203.29579 407.48031,158.77528 z "
     id="path826"
     sodipodi:nodetypes="czszs"
     transform="matrix(0.546812,0.000000,0.000000,0.546812,215.9075,536.7435)" />
  <path
     style="fill:none;fill-opacity:0.75000000;fill-rule:evenodd;stroke:#000000;stroke-width:2.5000000;"
     d="M 403.81987,163.75349 C 445.50009,113.53223 591.05997,211.32450 560.99554,251.29652"
     id="path827"
     sodipodi:nodetypes="cc"
     transform="matrix(0.546812,0.000000,0.000000,0.546812,215.9075,536.7435)" />
  <path
     style="fill:none;fill-opacity:0.75000000;fill-rule:evenodd;stroke:#000000;stroke-width:2.5000000;"
     d="M 532.34047,131.39992 C 471.24825,101.26266 408.27321,258.04519 450.34658,279.16476"
     id="path828"
     sodipodi:nodetypes="cc"
     transform="matrix(0.546812,0.000000,0.000000,0.546812,215.9075,536.7435)" />
  <path
     style="fill:none;fill-rule:evenodd;stroke:black;stroke-opacity:1;stroke-width:5.0000000;stroke-linejoin:miter;stroke-linecap:butt;fill-opacity:0.75;stroke-dasharray:none;"
     d="M 303.68110,872.69683 L 604.86220,872.69683"
     id="path897" />
  <g
     id="g840"
     transform="matrix(0.997219,-7.453146e-2,7.453146e-2,0.997219,-83.87377,27.60980)">
    <path
       style="fill:none;fill-rule:evenodd;stroke:black;stroke-opacity:1;stroke-width:6.2500000;stroke-linejoin:round;stroke-linecap:butt;fill-opacity:0.75;stroke-dasharray:none;"
       d="M 288.69784,715.74801 C 292.54291,715.74801 382.57022,715.74801 385.17135,715.74801 C 388.03415,715.74801 389.76378,717.81914 389.76378,720.71961 C 389.76378,723.88175 389.76378,761.78846 389.76378,764.02694 C 389.76378,766.52709 387.94384,768.89762 385.40354,768.89762 C 383.12491,768.89762 291.05367,768.89762 287.91285,768.89762 C 285.03369,768.89762 280.77212,768.58617 278.60193,766.01932 C 276.43174,763.71413 255.35807,744.43114 255.35807,741.81167 C 255.35807,736.31106 277.98095,720.87008 280.72276,718.30904 C 283.46457,715.74801 284.59110,715.74801 288.69784,715.74801 z "
       id="path835"
       sodipodi:nodetypes="czzzzzzzzz" />
    <text
       xml:space="preserve"
       style="fill:black;stroke:none;font-family:URW Gothic L;font-style:normal;font-weight:600;font-size:24.000000;fill-opacity:0.75;stroke-opacity:1;stroke-width:3pt;stroke-linejoin:miter;stroke-linecap:butt;font-stretch:normal;font-variant:normal;text-anchor:start;writing-mode:lr;"
       x="281.83257"
       y="748.04761"
       id="text836"
       sodipodi:linespacing="100%"><tspan
         id="tspan837">Parcours</tspan></text>
  </g>
</svg>
